<svg width="128" height="128" xmlns:xlink="http://www.w3.org/1999/xlink" xmlns="http://www.w3.org/2000/svg"><defs><linearGradient xlink:href="#a" id="i" x1="17.799" x2="80.332" y1="92.108" y2="9.173" gradientTransform="matrix(.9551 0 0 1.047 1.899 .6)" gradientUnits="userSpaceOnUse"/><linearGradient id="a"><stop offset="0" stop-opacity=".096"/><stop offset="1" stop-opacity="0"/></linearGradient><linearGradient xlink:href="#b" id="l" x1="144.456" x2="25.021" y1="-33.309" y2="54.606" gradientTransform="matrix(.989 0 0 1.01111 1.899 .6)" gradientUnits="userSpaceOnUse"/><linearGradient id="b"><stop offset="0" stop-color="#fff"/><stop offset="1" stop-color="#fff" stop-opacity="0"/></linearGradient><linearGradient xlink:href="#c" id="m" x1="85.254" x2="18.096" y1="25.795" y2="107.643" gradientTransform="matrix(.95543 0 0 1.04665 1.899 .6)" gradientUnits="userSpaceOnUse"/><linearGradient id="c"><stop offset="0" stop-color="#dadada"/><stop offset=".349" stop-color="#f1f1f1"/><stop offset="1" stop-color="#f0f0f0"/></linearGradient><linearGradient xlink:href="#c" id="n" x1="87.733" x2="66.495" y1="15.004" y2="36.062" gradientTransform="matrix(.9553 0 0 1.0468 1.899 .6)" gradientUnits="userSpaceOnUse"/><linearGradient id="d"><stop offset="0" stop-color="#fafafa"/><stop offset="1" stop-color="#bbb"/></linearGradient><linearGradient id="e"><stop offset="0" stop-color="#a3a3a3"/><stop offset="1" stop-color="#4c4c4c"/></linearGradient><linearGradient id="f"><stop offset="0" stop-color="#fff"/><stop offset="1" stop-color="#f8f8f8"/></linearGradient><linearGradient xlink:href="#a" id="j" x1="17.836" y1="90.908" x2="78.654" y2="10.248" gradientTransform="matrix(.95358 0 0 1.04868 1.899 .6)" gradientUnits="userSpaceOnUse"/><linearGradient xlink:href="#a" id="k" x1="18.002" y1="91.507" x2="79.677" y2="9.711" gradientTransform="matrix(.95435 0 0 1.04783 1.899 .6)" gradientUnits="userSpaceOnUse"/><radialGradient xlink:href="#d" id="o" cx="33.967" cy="35.737" r="86.708" fx="33.967" fy="35.737" gradientTransform="scale(.9605 1.04113)" gradientUnits="userSpaceOnUse"/><radialGradient xlink:href="#e" id="p" cx="8.824" cy="3.756" r="37.752" fx="8.824" fy="3.756" gradientTransform="matrix(.96827 0 0 1.03277 3.354 .646)" gradientUnits="userSpaceOnUse"/><radialGradient xlink:href="#f" id="q" cx="8.144" cy="7.268" r="38.159" fx="8.144" fy="7.268" gradientTransform="matrix(.96827 0 0 1.03277 3.354 .646)" gradientUnits="userSpaceOnUse"/><radialGradient xlink:href="#g" id="r" cx="20.892" cy="114.568" r="5.256" fx="20.892" fy="114.568" gradientTransform="translate(4.614 3.98)scale(.2297)" gradientUnits="userSpaceOnUse"/><radialGradient id="g" cx="20.892" cy="114.568" r="5.256" fx="20.892" fy="114.568" gradientUnits="userSpaceOnUse"><stop offset="0" stop-color="#f0f0f0"/><stop offset="1" stop-color="#9a9a9a"/></radialGradient><radialGradient xlink:href="#h" id="s" cx="20.892" cy="64.568" r="5.257" fx="20.892" fy="64.568" gradientTransform="translate(4.614 3.98)scale(.2297)" gradientUnits="userSpaceOnUse"/><radialGradient id="h" cx="20.892" cy="64.568" r="5.257" fx="20.892" fy="64.568" gradientUnits="userSpaceOnUse"><stop offset="0" stop-color="#f0f0f0"/><stop offset="1" stop-color="#9a9a9a"/></radialGradient></defs><path fill="url(#i)" fill-opacity=".75" fill-rule="evenodd" d="M14.764 10.663V97.98h79.398V32.492l-19.85-21.829Z" style="fill:url(#j)" transform="translate(3.397 3.522)scale(1.06666)"/><path fill="url(#i)" fill-opacity=".75" fill-rule="evenodd" d="M14.875 10.373v88.184h80.58v-66.29C88.732 24.87 82.01 17.473 75.279 10.083H14.875z" style="fill:url(#k)" transform="translate(3.397 3.522)scale(1.06666)"/><path fill="url(#i)" fill-opacity=".75" fill-rule="evenodd" d="M14.633 9.793v89.344H96.4V32.044c-6.835-7.515-13.668-15.032-20.51-22.541H14.634Z" style="fill:url(#i)" transform="translate(3.397 3.522)scale(1.06666)"/><path fill="#fff" fill-rule="evenodd" d="M19.31 13.082v94.052h85.83V36.596L83.68 13.082Z"/><path fill="url(#l)" fill-rule="evenodd" d="m22.027 11.615-.362 80.817h79.005l.045-19.978c-1.766.68-19.615-24.598-42.084-23.511C36.14 50.03 41.96 14.876 22.027 11.615" style="fill:url(#l)" transform="translate(3.397 3.522)scale(1.06666)"/><path fill="url(#m)" fill-rule="evenodd" stroke="#000" stroke-opacity=".365" stroke-width=".256" d="M12.417 9.072v88.175h80.466V31.116L72.767 9.072Z" style="fill:url(#m)" transform="translate(3.397 3.522)scale(1.06666)"/><path fill="url(#n)" fill-rule="evenodd" d="M93.103 31.116c-6.065-1.796-13.924-1.541-19.86-.518 1.024-6.577 1.153-14.82-.257-21.526z" style="fill:url(#n)" transform="translate(3.397 3.522)scale(1.06666)"/><text xml:space="preserve" x="18.731" y="29.898" stroke-width="1pt" font-family="arial" font-size="10" font-weight="400" transform="translate(3.397 3.522)scale(1.06666)"><tspan>fname</tspan></text><g transform="translate(-184.087 -292.731)scale(.73986)"><rect width="34.875" height="40.92" x="6.604" y="3.646" fill="url(#o)" stroke="url(#p)" stroke-linecap="round" stroke-linejoin="round" color="#000" rx="1.657" ry="1.657" style="fill:url(#o);stroke:url(#p);marker:none" transform="translate(357.533 505.944)"/><rect width="32.776" height="38.946" x="7.666" y="4.584" fill="none" stroke="url(#q)" stroke-linecap="round" stroke-linejoin="round" color="#000" rx=".215" ry=".215" style="stroke:url(#q);marker:none" transform="translate(357.533 505.944)"/><path fill="#fff" d="M368.528 536.123a.82.82 0 1 1-1.64 0 .82.82 0 0 1 1.64 0m0-11.485a.82.82 0 1 1-1.641 0 .82.82 0 0 1 1.641 0"/><path fill="url(#r)" d="M9.995 29.952a.82.82 0 1 1-1.641 0 .82.82 0 0 1 1.641 0" transform="translate(358.18 505.906)" style="fill:url(#r)"/><path fill="url(#s)" d="M9.995 18.467a.82.82 0 1 1-1.642 0 .82.82 0 0 1 1.642 0" transform="translate(358.18 505.906)" style="fill:url(#s)"/><path fill="none" stroke="#000" stroke-opacity=".018" stroke-width=".989" d="M369.04 511.438v37.906"/><path fill="none" stroke="#fff" stroke-opacity=".205" d="M370.033 510.964v38.018"/><g fill="#9b9b9b" fill-opacity=".55" color="#000" transform="matrix(.9091 0 0 1 359.897 505.944)"><rect width="22" height="1" x="15" y="9" rx=".219" ry=".094" style="marker:none"/><rect width="22" height="1" x="15" y="11" rx=".219" ry=".094" style="marker:none"/><rect width="22" height="1" x="15" y="13" rx=".219" ry=".094" style="marker:none"/><rect width="22" height="1" x="15" y="15" rx=".219" ry=".094" style="marker:none"/><rect width="22" height="1" x="15" y="17" rx=".219" ry=".094" style="marker:none"/><rect width="22" height="1" x="15" y="19" rx=".219" ry=".094" style="marker:none"/><rect width="22" height="1" x="15" y="21" rx=".219" ry=".094" style="marker:none"/><rect width="22" height="1" x="15" y="23" rx=".219" ry=".094" style="marker:none"/><rect width="9.9" height="1" x="15" y="25" rx=".098" ry=".094" style="marker:none"/><rect width="22" height="1" x="15" y="29" rx=".219" ry=".094" style="marker:none"/><rect width="22" height="1" x="15" y="31" rx=".219" ry=".094" style="marker:none"/><rect width="22" height="1" x="15" y="33" rx=".219" ry=".094" style="marker:none"/><rect width="22" height="1" x="15" y="35" rx=".219" ry=".094" style="marker:none"/><rect x="15" y="37" rx=".153" ry=".094" style="marker:none"/></g></g><text xml:space="preserve" x="18.731" y="41.032" stroke-width="1pt" font-family="arial" font-size="10" font-weight="400" transform="translate(3.397 3.522)scale(1.06666)"><tspan>nancy</tspan></text><text xml:space="preserve" x="18.731" y="50.416" stroke-width="1pt" font-family="arial" font-size="10" font-weight="400" transform="translate(3.397 3.522)scale(1.06666)"><tspan>erin    </tspan></text><text xml:space="preserve" x="18.731" y="60.15" stroke-width="1pt" font-family="arial" font-size="10" font-weight="400" transform="translate(3.397 3.522)scale(1.06666)"><tspan>tony</tspan></text><text xml:space="preserve" x="-77.197" y="48.129" stroke-width="1pt" font-family="arial" font-size="12" font-weight="400" transform="rotate(-90 3.46 .062)scale(1.06666)"><tspan>...</tspan></text><text xml:space="preserve" x="46.797" y="29.438" stroke-width="1pt" font-family="arial" font-size="10" font-weight="700" transform="translate(3.397 3.522)scale(1.06666)"><tspan>,</tspan><tspan x="46.797" y="39.438">,</tspan><tspan x="46.797" y="49.438">,</tspan><tspan x="46.797" y="59.438">,</tspan></text><text xml:space="preserve" x="52.456" y="41.028" stroke-width="1pt" font-family="arial" font-size="10" font-weight="400" transform="translate(3.397 3.522)scale(1.06666)"><tspan>davo</tspan></text><text xml:space="preserve" x="52.79" y="50.416" stroke-width="1pt" font-family="arial" font-size="10" font-weight="400" transform="translate(3.397 3.522)scale(1.06666)"><tspan>bora</tspan></text><text xml:space="preserve" x="52.79" y="60.289" stroke-width="1pt" font-family="arial" font-size="10" font-weight="400" transform="translate(3.397 3.522)scale(1.06666)"><tspan>rapha</tspan></text><text xml:space="preserve" x="52.557" y="30.072" stroke-width="1pt" font-family="arial" font-size="10" font-weight="400" transform="translate(3.397 3.522)scale(1.06666)"><tspan>lnam</tspan></text></svg>