<svg xmlns="http://www.w3.org/2000/svg" width="284.675" height="350" viewBox="0 0 75.32 92.604"><path fill="#ff2116" d="M-29.633 123.947c-3.552 0-6.443 2.894-6.443 6.446v49.498c0 3.551 2.891 6.445 6.443 6.445h37.85c3.552 0 6.443-2.893 6.443-6.445v-40.702s.102-1.191-.416-2.351a6.5 6.5 0 0 0-1.275-1.844l-.006-.008-9.39-9.21-.016-.016s-.802-.764-1.99-1.274c-1.4-.6-2.842-.537-2.842-.537l.021-.002z" color="#000" font-family="sans-serif" overflow="visible" paint-order="markers fill stroke" style="line-height:normal;font-variant-ligatures:normal;font-variant-position:normal;font-variant-caps:normal;font-variant-numeric:normal;font-variant-alternates:normal;font-feature-settings:normal;text-indent:0;text-align:start;text-decoration-line:none;text-decoration-style:solid;text-decoration-color:#000;text-transform:none;text-orientation:mixed;white-space:normal;shape-padding:0;isolation:auto;mix-blend-mode:normal;solid-color:#000;solid-opacity:1" transform="translate(53.548 -183.975)scale(1.4843)"/><path fill="#f5f5f5" d="M-29.633 126.064h28.4s1.135.011 1.965.368a5.4 5.4 0 0 1 1.373.869l9.368 9.19s.564.595.838 1.208c.22.495.234 1.4.234 1.4l-.002.046v40.746a4.294 4.294 0 0 1-4.326 4.328h-37.85a4.294 4.294 0 0 1-4.326-4.328v-49.498a4.294 4.294 0 0 1 4.326-4.328" color="#000" font-family="sans-serif" overflow="visible" paint-order="markers fill stroke" style="line-height:normal;font-variant-ligatures:normal;font-variant-position:normal;font-variant-caps:normal;font-variant-numeric:normal;font-variant-alternates:normal;font-feature-settings:normal;text-indent:0;text-align:start;text-decoration-line:none;text-decoration-style:solid;text-decoration-color:#000;text-transform:none;text-orientation:mixed;white-space:normal;shape-padding:0;isolation:auto;mix-blend-mode:normal;solid-color:#000;solid-opacity:1" transform="translate(53.548 -183.975)scale(1.4843)"/><path fill="#ff2116" d="M18.804 55.135c-2.162-2.162.178-5.132 6.526-8.288l3.994-1.985 1.557-3.404a134 134 0 0 0 2.838-6.791l1.283-3.386-.883-2.505c-1.087-3.08-1.476-7.71-.786-9.375.935-2.255 3.993-2.023 5.204.393.947 1.888.85 5.307-.271 9.618l-.92 3.535.81 1.374c.445.757 1.747 2.552 2.891 3.988l2.151 2.677 2.676-.35c8.505-1.11 11.417.777 11.417 3.481 0 3.413-6.677 3.695-12.285-.245-1.262-.886-2.127-1.766-2.127-1.766s-3.513.716-5.243 1.182c-1.785.48-2.676.782-5.29 1.665 0 0-.919 1.333-1.515 2.3-2.225 3.605-4.823 6.591-6.677 7.679-2.078 1.217-4.254 1.299-5.35.203m3.393-1.212c1.217-.751 3.676-3.66 5.379-6.36l.688-1.094-3.139 1.579c-4.848 2.437-7.065 4.735-5.913 6.124.648.78 1.425.717 2.985-.25m31.493-8.838c1.19-.833 1.017-2.512-.326-3.189-1.046-.525-1.89-.633-4.606-.593-1.67.112-4.355.45-4.809.552 0 0 1.474 1.02 2.129 1.395.87.497 2.99 1.42 4.537 1.894 1.524.468 2.408.419 3.075-.06M41.028 39.82c-.72-.757-1.943-2.334-2.72-3.509-1.013-1.33-1.522-2.268-1.522-2.268s-.742 2.384-1.35 3.82l-1.898 4.691-.549 1.065s2.924-.96 4.413-1.348c1.576-.411 4.776-1.04 4.776-1.04zm-4.082-16.366c.184-1.54.263-3.078-.233-3.853-1.371-1.499-3.028-.25-2.747 3.318.093 1.2.391 3.25.79 4.515l.725 2.299.51-1.732c.281-.952.712-2.998.957-4.547"/><path fill="#2c2c2c" d="M-20.93 167.839h2.365q1.133 0 1.84.217.706.21 1.19.944.482.728.482 1.756 0 .945-.392 1.624-.392.678-1.056.98-.658.3-2.03.3h-.818v3.73h-1.581zm1.58 1.224v3.33h.785q1.05 0 1.448-.391.406-.392.406-1.274 0-.657-.266-1.063-.266-.413-.588-.504-.315-.098-1-.098zm5.508-1.224h2.148q1.56 0 2.49.552.938.553 1.414 1.645.483 1.091.483 2.42 0 1.4-.434 2.499-.427 1.091-1.316 1.763-.881.672-2.518.672h-2.267zm1.58 1.266v7.018h.659q1.378 0 2-.952.623-.958.623-2.553 0-3.513-2.623-3.513zm6.473-1.266h5.304v1.266h-3.723v2.855h2.981v1.266h-2.98v4.164H-5.79z" font-family="Franklin Gothic Medium Cond" letter-spacing="0" style="line-height:125%;-inkscape-font-specification:&quot;Franklin Gothic Medium Cond&quot;" word-spacing="4.26" transform="translate(53.548 -183.975)scale(1.4843)"/></svg>