<?xml version="1.0" standalone="no"?>
<!DOCTYPE svg PUBLIC "-//W3C//DTD SVG 20010904//EN"
 "http://www.w3.org/TR/2001/REC-SVG-20010904/DTD/svg10.dtd">
<svg version="1.0" xmlns="http://www.w3.org/2000/svg"
 width="450.000000pt" height="450.000000pt" viewBox="0 0 450.000000 450.000000"
 preserveAspectRatio="xMidYMid meet">
<metadata>
Created by potrace 1.14, written by Peter Selinger 2001-2017
</metadata>
<g transform="translate(0.000000,450.000000) scale(0.100000,-0.100000)"
fill="#000000" stroke="none">
<path d="M1890 4491 c-20 -4 -40 -10 -46 -14 -6 -3 -40 -11 -76 -17 -141 -22
-444 -128 -548 -191 -8 -5 -35 -20 -60 -32 -68 -34 -246 -153 -307 -207 -7 -5
-15 -10 -18 -10 -19 0 -355 -336 -355 -355 0 -3 -5 -11 -10 -18 -54 -61 -173
-239 -207 -307 -12 -25 -27 -52 -32 -60 -63 -104 -169 -407 -191 -548 -6 -36
-16 -74 -22 -86 -7 -12 -14 -85 -16 -168 l-4 -148 1070 0 c960 0 1072 2 1086
16 14 14 16 126 16 1085 l0 1069 -122 -1 c-68 -1 -139 -4 -158 -8z"/>
<path d="M2380 3425 c0 -1052 0 -1075 19 -1085 21 -11 2056 -15 2085 -4 12 5
16 20 16 63 0 73 -18 220 -30 246 -5 11 -11 40 -13 65 -6 53 -50 227 -71 273
-7 18 -21 55 -31 82 -10 28 -30 74 -46 104 -16 30 -29 62 -29 71 0 10 -8 28
-18 41 -10 13 -36 55 -56 94 -21 38 -53 91 -72 117 -19 27 -34 53 -34 58 0 6
-4 10 -8 10 -4 0 -21 20 -36 45 -16 25 -33 45 -37 45 -5 0 -9 5 -9 11 0 14
-18 34 -145 167 -84 88 -135 132 -265 235 -41 32 -200 137 -209 137 -5 0 -11
3 -13 8 -4 10 -265 137 -313 152 -22 7 -53 18 -70 25 -53 23 -129 45 -246 71
-63 14 -132 29 -154 34 -22 5 -79 9 -127 10 l-88 0 0 -1075z"/>
<path d="M0 2033 c1 -49 5 -106 10 -128 5 -22 18 -83 29 -135 25 -112 56 -222
77 -267 8 -17 14 -35 14 -40 0 -18 66 -170 107 -246 24 -44 43 -84 43 -89 0
-4 5 -8 10 -8 6 0 10 -6 10 -13 0 -14 93 -151 177 -261 59 -77 250 -275 298
-309 17 -11 34 -27 38 -34 4 -7 15 -13 22 -13 8 0 15 -4 15 -9 0 -5 16 -19 35
-31 20 -12 41 -27 48 -34 24 -23 148 -106 159 -106 6 0 19 -6 27 -14 24 -21
177 -98 249 -125 34 -13 65 -28 68 -32 3 -5 15 -9 28 -9 13 0 36 -7 53 -15 40
-20 216 -66 273 -72 25 -2 54 -8 65 -13 26 -12 173 -30 246 -30 43 0 58 4 63
16 11 29 7 2064 -4 2085 -10 19 -33 19 -1085 19 l-1075 0 0 -87z"/>
<path d="M2385 2108 c-3 -7 -4 -483 -3 -1058 l3 -1045 81 3 c45 1 104 7 130
13 27 6 72 14 99 19 76 13 278 69 289 80 6 6 22 10 37 10 15 0 30 4 34 9 3 5
29 17 58 27 57 19 232 107 258 130 8 8 21 14 27 14 15 0 198 128 287 201 82
66 255 240 318 319 65 82 187 259 187 272 0 6 6 19 14 27 23 26 111 201 130
258 10 29 22 55 27 58 5 4 9 19 9 34 0 15 4 31 10 37 11 11 67 213 80 289 5
28 13 72 19 99 6 26 12 85 13 130 l3 81 -1053 3 c-837 2 -1054 0 -1057 -10z"/>
</g>
</svg>
