<svg xmlns="http://www.w3.org/2000/svg" width="662" height="285" viewBox="0 0 662 285" version="1.1" id="svg30"><defs id="defs12"><style id="style10">.c{fill:#303030}</style></defs><rect x="26.01" y="26.01" width="609.98" height="232.98" rx="37.85" id="rect14" style="fill:#fafafa"/><path d="M190.26 59.76a25.28 25.28 0 0 0-16-5.68H77.64A25.3 25.3 0 0 0 65.8 57a25.7 25.7 0 0 0-10.27 9.94 27 27 0 0 0-1.25 2.51c-.22.59-.48 1.16-.67 1.73a23 23 0 0 0-.92 3.55 24 24 0 0 0-.46 4.75v96.65a25.1 25.1 0 0 0 2.51 11 25.41 25.41 0 0 0 22.9 14.37h51.58a1.37 1.37 0 0 0 1.37-1.37V194a1.37 1.37 0 0 0-1.37-1.37h-6.7l-20-40.47 45.58-60.42A5.1 5.1 0 0 0 149 90l41.77 6.39v9.4a1.37 1.37 0 0 0 1.37 1.37h6.2a1.37 1.37 0 0 0 1.37-1.37V79.48a25.28 25.28 0 0 0-9.45-19.72M137.66 63l2.16 17.21-33.77-5.16L104.53 63Zm-60 0h18.6l1.34 10.76L72.91 70l-7.79-1.2A16.4 16.4 0 0 1 77.64 63Zm18.8 18.91-17.25 22.9-13.63-27.62Zm-35.31 4.9 11 22.35-11 1.36Zm0 32L76 117l15.41 31.2-30.26 3.8Zm52.19 73.78H79a17.9 17.9 0 0 1-17.86-17.85v-14.49L95.26 156Zm-14.85-48.7L83.26 113l22.38-29.65 34.5 5.28ZM190.75 88l-42.49-6.5L146 63h27a17.9 17.9 0 0 1 17.84 17.84Z" id="path16" style="fill:#8c0000"/><path class="c" d="M197.67 118.93a2.26 2.26 0 0 1 2.15 2.44V128a2 2 0 0 1-2.3 2.29h-28.44c-7 0-11.16 2.45-11.16 7.95v2c0 4.28 2 7.95 9.48 10.71l20.34 8.1c14.06 5.29 15.26 13.09 15.26 21.5v1.68c0 17.13-10.25 20.49-30.89 20.49-13.31 0-25.39-1.07-28-1.37-1.83-.16-2.29-1.07-2.29-2.3v-6.72a2 2 0 0 1 2.29-2.3h28.29c12.24 0 16.06-1.37 16.06-7.95v-1.84c0-4.43-1.83-7.34-8.87-10.24l-21.71-8.26c-11.78-4.59-14.68-13.45-14.68-21.86v-3.22c0-16.82 14.68-19.11 31-19.11a193 193 0 0 1 23.47 1.38" id="path18"/><path class="c" d="M289.57 160.06c0 34.1-6.12 42.66-35 42.66a168 168 0 0 1-20.18-.91v28.13a2 2 0 0 1-2.3 2.3H222a2 2 0 0 1-2.29-2.3V122.75c0-1.68.91-2.29 2.44-2.6a170.7 170.7 0 0 1 31.66-2.6c29.64 0 35.76 8.72 35.76 42.51m-55.2-29.67v58.27a166 166 0 0 0 19.26 1.22c19 0 21.26-5.81 21.26-29.67 0-23.7-2.14-29.82-20.95-29.82Z" id="path20"/><path class="c" d="M374.89 118.31a2 2 0 0 1 2.29 2.3v73.7c-.15 30-6 38.69-35.32 38.69a154 154 0 0 1-23.09-1.38 2.25 2.25 0 0 1-2.14-2.44v-6.58a2 2 0 0 1 2.29-2.29h22.63c17.13 0 20.95-4.13 20.95-17.89v-.92a120.3 120.3 0 0 1-20.18 1.22c-28.9 0-35-8.71-35-41.74v-40.37a2 2 0 0 1 2.29-2.3h9.94a2 2 0 0 1 2.3 2.3v39.45c0 23.85 2.44 29.82 21.41 29.82a165 165 0 0 0 19.26-1.07v-68.2a2 2 0 0 1 2.3-2.3Z" id="path22"/><path class="c" d="M463.42 86.36a2 2 0 0 1 2.29 2.29v109c0 1.68-.91 2.29-2.44 2.44a172 172 0 0 1-31.81 2.6c-29.66 0-35.63-8.41-35.63-42.35s6-42.82 34.87-42.82a164 164 0 0 1 20.3 1.1v-30a2 2 0 0 1 2.3-2.29Zm-31.81 44c-19 0-21.1 5.82-21.1 29.82 0 23.55 2 29.67 20.95 29.67a171 171 0 0 0 19.54-1.19v-58.27Z" id="path24"/><path class="c" d="M553.17 157.92v4.43c0 3.06-.76 4.29-5.5 4.29H499c.46 18.65 4 23.24 20.34 23.24h25.08a2 2 0 0 1 2.29 2.29v6.73a2.26 2.26 0 0 1-2.14 2.45 189 189 0 0 1-25.54 1.37c-28.74 0-34.86-8.41-34.86-42.51s6.12-42.66 34.86-42.66c27.42 0 33.84 8.1 34.14 40.37m-54.28-3.21h39.6c-.3-19.42-3.51-24.32-19.42-24.32-16.51 0-19.87 4.9-20.18 24.32" id="path26"/><path class="c" d="M611 119.23c1.53.46 2.29 1.07 2.29 2.6v6.42a2 2 0 0 1-2.44 2.14h-13.34c-10.55 0-13.3 1.69-13.3 8.57v60.7a2 2 0 0 1-2.3 2.3H572a2 2 0 0 1-2.3-2.3v-64.22c0-17.28 15.29-17.89 24.16-17.89 3.65 0 14.05.61 17.14 1.68" id="path28"/></svg>