<svg xmlns="http://www.w3.org/2000/svg" width="252.438" height="148.423" xml:space="preserve"><path fill="#113B6A" d="M132.808 1.081c-8.074 0-14.617 6.545-14.617 14.616 0 2.838.822 5.478 2.222 7.72l-9.306 9.306c-11.691-10.58-27.193-17.026-44.203-17.026C30.508 15.697 1 45.205 1 81.601c0 36.398 29.508 65.903 65.904 65.903s65.904-29.505 65.904-65.903c0-17.009-6.447-32.512-17.027-44.204l9.307-9.306a14.54 14.54 0 0 0 7.721 2.222c8.07 0 14.613-6.544 14.613-14.615s-6.543-14.617-14.614-14.617m27.853 67.849a.51.51 0 0 1-.053.42.55.55 0 0 1-.326.252 7 7 0 0 1-.81.211 12 12 0 0 1-1.641.211q-.368.021-.621.021-.988 0-1.598-.284t-.947-.746a2.6 2.6 0 0 1-.452-1.063 6.6 6.6 0 0 1-.115-1.252v-4.689h-.926q-.252 0-.347-.116-.095-.115-.095-.347V59.97q0-.231.095-.348.095-.115.347-.115h.946v-2.061q0-.252.127-.369a.85.85 0 0 1 .336-.178l2.125-.568q.23-.085.378.011.148.095.147.347v2.818h2.146q.294 0 .368.105.073.106.073.336v1.6q0 .231-.073.347-.075.116-.368.116h-2.167l.021 3.912q0 .293.031.504a.64.64 0 0 0 .158.348.8.8 0 0 0 .379.21q.252.074.715.073.252 0 .652-.021.399-.022.799-.063.21 0 .337.043.126.04.168.398zm10.916.483a.7.7 0 0 1-.073.316q-.075.147-.368.146h-2.314q-.463 0-.462-.463v-1.135q0-.8.01-1.693c.01-.893.011-1.16.011-1.693v-1.136q0-.862-.305-1.22c-.305-.358-.529-.357-.979-.357q-.231 0-.515.063a6 6 0 0 0-.568.158q-.284.094-.536.199c-.252.105-.315.134-.441.189v6.625q0 .17-.074.316c-.074.146-.172.146-.368.146h-2.313q-.252 0-.347-.125a.55.55 0 0 1-.095-.338V55.487a.54.54 0 0 1 .095-.336q.095-.127.347-.127h2.335q.293 0 .368.148a.7.7 0 0 1 .073.314v4.754q.653-.357 1.493-.652a5 5 0 0 1 1.641-.294q1.178 0 1.861.368.684.368 1.021.967.336.6.421 1.336t.084 1.473v5.975zm5.153-3.975q.02.61.188.988c.168.378.264.453.452.6q.284.221.694.295c.41.074.586.073.937.073q.484 0 1.156-.063a38 38 0 0 0 1.325-.146q.42-.042.526.01.104.053.188.453l.169.988q.063.357 0 .557t-.547.39q-.317.105-.747.2-.431.094-.883.157a14 14 0 0 1-1.757.126q-1.577 0-2.556-.441-.977-.442-1.515-1.168a4.15 4.15 0 0 1-.726-1.682 10.4 10.4 0 0 1-.188-2.009q0-.757.126-1.704c.126-.947.287-1.227.609-1.787q.484-.841 1.441-1.41.957-.568 2.618-.567 1.515 0 2.44.431.925.432 1.44 1.125.515.695.705 1.547a7.8 7.8 0 0 1 .188 1.693q0 .653-.241.998-.243.348-.915.348h-5.127zm1.514-3.681q-.736 0-1.083.452t-.389 1.336h2.923q0-.759-.315-1.273-.315-.515-1.136-.515M162.88 89.37q-.075.138-.368.137h-2.313q-.463 0-.463-.441 0-1.388.011-2.756.01-1.366.011-2.754 0-.885-.306-1.252-.305-.368-.978-.368-.505 0-1.094.241-.589.243-.968.369v6.52a.6.6 0 0 1-.073.305q-.075.138-.368.137h-2.293q-.274 0-.368-.115a.5.5 0 0 1-.095-.326v-9.465q0-.21.095-.336t.368-.127h2.293q.293 0 .368.147a.7.7 0 0 1 .073.315v.505q.02 0 .031.011t.032.01a6 6 0 0 1 1.619-.852q.925-.326 1.683-.326 1.114 0 1.757.369.64.367.957.967.314.6.389 1.336.073.735.073 1.473v5.973a.64.64 0 0 1-.073.303m5.248-4.301q.02.61.188.988c.168.378.264.453.452.6q.284.221.694.295c.41.074.586.073.937.073q.484 0 1.156-.063a38 38 0 0 0 1.325-.146q.42-.042.526.01.104.053.188.453l.169.988q.063.357 0 .557t-.547.39q-.317.105-.747.2-.431.094-.883.157a14 14 0 0 1-1.757.126q-1.577 0-2.556-.441-.977-.442-1.515-1.168a4.15 4.15 0 0 1-.726-1.682 10.4 10.4 0 0 1-.188-2.009q0-.757.126-1.704c.126-.947.287-1.227.609-1.787q.484-.842 1.441-1.41t2.618-.567q1.515 0 2.44.431.925.432 1.44 1.125.515.695.705 1.547a7.8 7.8 0 0 1 .188 1.693q0 .653-.241.998-.243.348-.915.348h-5.127zm1.513-3.681q-.737 0-1.083.452-.347.452-.389 1.336h2.923q0-.759-.315-1.273-.315-.515-1.136-.515m13.967 7.173a.51.51 0 0 1-.053.42.55.55 0 0 1-.326.252 7 7 0 0 1-.81.211 12 12 0 0 1-1.641.211q-.368.021-.621.021-.988 0-1.598-.284t-.947-.746a2.6 2.6 0 0 1-.452-1.063 6.6 6.6 0 0 1-.115-1.252v-4.689h-.926q-.252 0-.347-.116-.095-.115-.095-.347v-1.578q0-.231.095-.348.095-.115.347-.115h.946v-2.061q0-.252.127-.369a.85.85 0 0 1 .336-.178l2.125-.568q.23-.084.378.011t.147.347v2.818h2.146q.293 0 .368.105.073.106.073.336v1.6q0 .231-.073.347-.075.116-.368.116h-2.167l.021 3.912q0 .293.031.504a.64.64 0 0 0 .158.348.8.8 0 0 0 .379.21q.252.074.715.073.252 0 .652-.021.399-.022.799-.063.21 0 .337.043.126.04.168.398zm9.254-8.919q.295.947.568 1.883l.547 1.882.631 2.188h.084l.673-2.629.862-3.344q.085-.294.18-.39.094-.095.325-.095h2.356q.294 0 .336.137a.47.47 0 0 1-.021.305l-2.903 9.276a1.4 1.4 0 0 1-.252.483q-.147.169-.568.168h-1.767q-.357 0-.505-.115-.146-.115-.273-.494l-.505-1.515-.693-2.062h-.063l-.778 2.125-.525 1.451q-.105.274-.242.441-.137.169-.6.168h-1.619q-.422 0-.578-.125-.158-.126-.264-.463l-3.134-9.318a.6.6 0 0 1-.021-.168q0-.294.336-.295h2.377q.273 0 .399.084.126.085.211.357l.946 3.514.736 2.691h.104l.758-2.377.567-1.661-.736-2.146a.38.38 0 0 1 .011-.315q.073-.147.305-.147h2.104q.316 0 .421.074c.105.074.14.194.21.432m11.463-3.26q0 .295-.063.578a1.2 1.2 0 0 1-.242.505 1.25 1.25 0 0 1-.505.357q-.326.138-.852.137-.547 0-.884-.137a1.2 1.2 0 0 1-.515-.368 1.15 1.15 0 0 1-.231-.505 3 3 0 0 1-.053-.567q0-.653.336-1.104.337-.452 1.347-.452.504 0 .831.116.326.115.515.326.19.21.253.494c.063.284.063.397.063.62m-.105 12.662q0 .17-.074.316c-.074.146-.165.146-.347.146h-2.313q-.275 0-.368-.125a.55.55 0 0 1-.095-.338v-9.465q0-.23.095-.347t.368-.116h2.313q.273 0 .347.158a.56.56 0 0 1 .074.305zm11.946.021a.6.6 0 0 1-.074.305q-.074.137-.37.137h-2.329q-.254 0-.339-.104c-.085-.104-.085-.175-.085-.315v-.547q-.02 0-.031-.011c-.011-.011-.018-.011-.031-.011a6.4 6.4 0 0 1-1.473.842 4 4 0 0 1-1.515.315q-1.073 0-1.756-.39a2.8 2.8 0 0 1-1.072-1.083q-.39-.693-.537-1.651a14 14 0 0 1-.146-2.092q0-1.263.157-2.283.158-1.02.62-1.745c.462-.725.743-.858 1.305-1.126q.841-.398 2.188-.398.716 0 1.251.094.535.096 1.021.242l.021-.021v-4.08q0-.21.085-.348.086-.136.36-.137h2.308q.296 0 .37.158t.074.326v13.923zm-3.218-7.172a6.4 6.4 0 0 0-.926-.189 7 7 0 0 0-.715-.042q-.442 0-.758.116-.315.115-.515.42-.201.305-.284.82c-.083.515-.084.789-.084 1.336q0 .779.073 1.251c.073.472.127.562.231.736a.76.76 0 0 0 .399.347q.242.085.558.084.252 0 .526-.063a5.4 5.4 0 0 0 1.062-.368q.242-.116.432-.2zm8.414 3.176q.02.61.188.988c.168.378.264.453.452.6q.284.221.694.295c.41.074.586.073.937.073q.484 0 1.156-.063a38 38 0 0 0 1.325-.146q.42-.042.526.01.104.053.188.453l.169.988q.063.357 0 .557t-.547.39q-.316.105-.747.2-.431.094-.883.157a14 14 0 0 1-1.757.126q-1.577 0-2.556-.441-.977-.442-1.515-1.168a4.15 4.15 0 0 1-.726-1.682 10.4 10.4 0 0 1-.188-2.009q0-.757.126-1.704c.126-.947.287-1.227.609-1.787q.484-.842 1.441-1.41t2.618-.567q1.515 0 2.44.431.925.432 1.44 1.125.515.695.705 1.547a7.8 7.8 0 0 1 .188 1.693q0 .653-.241.998-.243.348-.915.348h-5.127zm1.514-3.681q-.736 0-1.083.452t-.389 1.336h2.923q0-.759-.315-1.273-.316-.515-1.136-.515m-63.119 26.488a5 5 0 0 1-.905.652 6 6 0 0 1-.988.452 5.5 5.5 0 0 1-.988.253 6 6 0 0 1-.884.073q-.925 0-1.504-.263t-.894-.684-.432-.979c-.117-.558-.115-.76-.115-1.168q-.022-.967.263-1.64c.285-.673.459-.81.81-1.083s.778-.471 1.283-.59 1.065-.178 1.683-.178h2.419v-.337q0-.336-.073-.567a.75.75 0 0 0-.273-.379q-.2-.147-.558-.221c-.358-.074-.554-.074-.946-.074q-.232 0-.579.021l-.726.041q-.378.021-.757.064-.378.041-.694.063-.441.042-.578 0-.137-.041-.221-.357l-.231-1.094q-.042-.273.073-.453.115-.177.6-.367.358-.126.831-.221t.968-.158q.493-.062.978-.095.483-.031.842-.031 1.472 0 2.366.273.894.274 1.367.778.472.505.62 1.24.147.738.147 1.684v3.322q0 .337.031.526.032.19.116.284a.5.5 0 0 0 .231.137q.146.041.399.063.273.022.357.096t.084.262v1.347q0 .42-.61.547a5.4 5.4 0 0 1-1.304.147q-.779 0-1.367-.264-.59-.263-.799-1.104zm-.316-3.114h-1.894q-.589 0-.926.273-.336.275-.336 1.01 0 .484.199.674.2.189.747.189.483 0 1.125-.232c.642-.232.789-.322 1.084-.504zm14.323 1.104q0 .985-.39 1.646t-1.041 1.06c-.651.399-.929.458-1.482.577a8.3 8.3 0 0 1-1.735.178q-.38 0-.82-.031a13 13 0 0 1-.895-.094q-.453-.062-.862-.146a6 6 0 0 1-.726-.188q-.526-.188-.673-.386t-.042-.615l.231-1.001q.063-.293.189-.357.126-.063.483 0 .736.125 1.599.2c.863.075 1.044.073 1.409.073q.799 0 1.136-.179c.337-.179.337-.319.337-.601q0-.466-.253-.623-.252-.158-.925-.242a21 21 0 0 1-1.609-.295 4.5 4.5 0 0 1-1.314-.506 2.46 2.46 0 0 1-.895-.907q-.325-.57-.325-1.497 0-.844.323-1.477c.323-.633.512-.772.888-1.054q.564-.422 1.349-.633c.785-.211 1.093-.211 1.71-.211q.357 0 .788.032.432.031.873.084.442.053.853.139c.411.086.521.127.746.212q.42.148.621.308.2.158.094.562l-.23 1.082q-.085.294-.18.358-.095.063-.452.021-.357-.043-.777-.096a19 19 0 0 0-.831-.084 54 54 0 0 0-.768-.053 11 11 0 0 0-.61-.021q-.8-.02-.999.179-.2.2-.2.535 0 .399.37.514t.939.221q.823.103 1.563.262.739.157 1.299.514c.56.357.672.557.897.955q.336.598.337 1.585m10.265 0q0 .985-.39 1.646t-1.041 1.06c-.651.399-.929.458-1.482.577a8.3 8.3 0 0 1-1.735.178q-.38 0-.82-.031a13 13 0 0 1-.895-.094q-.453-.062-.862-.146a6 6 0 0 1-.726-.188q-.526-.188-.673-.386t-.042-.615l.231-1.001q.063-.293.189-.357.126-.063.483 0 .736.125 1.599.2c.863.075 1.044.073 1.409.073q.799 0 1.136-.179c.337-.179.337-.319.337-.601q0-.466-.253-.623-.252-.158-.925-.242a21 21 0 0 1-1.609-.295 4.5 4.5 0 0 1-1.314-.506 2.46 2.46 0 0 1-.895-.907q-.325-.57-.325-1.497 0-.844.323-1.477c.323-.633.512-.772.888-1.054q.564-.422 1.349-.633c.785-.211 1.093-.211 1.71-.211q.357 0 .788.032.432.031.873.084.442.053.853.139c.411.086.521.127.746.212q.42.148.621.308.2.158.094.562l-.23 1.082q-.085.294-.18.358-.095.063-.452.021-.357-.043-.777-.096a19 19 0 0 0-.831-.084 54 54 0 0 0-.768-.053 11 11 0 0 0-.61-.021q-.8-.02-.999.179-.2.2-.2.535 0 .399.37.514t.939.221q.823.103 1.563.262.739.157 1.299.514c.56.357.672.557.897.955q.337.598.337 1.585m4.942-1.166q.02.61.188.988c.168.378.264.453.452.6q.284.221.694.295c.41.074.586.073.937.073q.484 0 1.156-.063a38 38 0 0 0 1.325-.146q.42-.042.526.01.104.053.188.453l.169.988q.063.357 0 .557t-.547.39q-.317.105-.747.2-.431.094-.883.157a14 14 0 0 1-1.757.126q-1.577 0-2.556-.441-.977-.442-1.515-1.168a4.15 4.15 0 0 1-.726-1.682 10.4 10.4 0 0 1-.188-2.009q0-.757.126-1.704c.126-.947.287-1.227.609-1.787q.484-.842 1.441-1.41t2.618-.567q1.515 0 2.44.431.925.432 1.44 1.125.515.695.705 1.547a7.8 7.8 0 0 1 .188 1.693q0 .653-.241.998-.243.348-.915.348h-5.127zm1.514-3.681q-.736 0-1.083.452t-.389 1.336h2.923q0-.759-.315-1.273-.315-.515-1.136-.515m22.158 7.982q-.074.137-.348.137h-2.313q-.274 0-.368-.115a.5.5 0 0 1-.095-.326v-5.531q0-.967-.294-1.283c-.294-.316-.491-.315-.884-.315q-.379 0-.925.2-.548.2-.947.41v6.52a.6.6 0 0 1-.073.305q-.074.137-.368.137h-2.313q-.252 0-.347-.115a.5.5 0 0 1-.095-.326v-5.595q0-.883-.286-1.21-.286-.325-.858-.325-.381 0-.921.188-.54.19-.984.422v6.52a.57.57 0 0 1-.084.305q-.084.138-.376.137h-2.299q-.25 0-.345-.115a.5.5 0 0 1-.094-.326v-9.465q0-.21.094-.336c.094-.126.178-.127.345-.127h2.299q.291 0 .376.147a.63.63 0 0 1 .084.315v.484l.042.021a5.4 5.4 0 0 1 1.472-.853 4.5 4.5 0 0 1 1.62-.305q.947 0 1.661.348.715.346 1.052 1.083.736-.61 1.672-1.021c.936-.411 1.252-.41 1.883-.41q1.114 0 1.735.369.62.367.926.957.304.59.368 1.324.063.737.063 1.473v5.994a.65.65 0 0 1-.075.303m5.27-10.085a8 8 0 0 1 1.149-.273q.538-.084.981-.084 1.392 0 2.258.39.864.388 1.34 1.094.474.704.644 1.672c.17.968.169 1.354.169 2.124q0 1.24-.189 2.261t-.726 1.735q-.536.716-1.473 1.104c-.937.388-1.434.389-2.429.389q-.527 0-1.115-.041a21 21 0 0 1-1.156-.116q-.569-.074-1.094-.189a5 5 0 0 1-.926-.284q-.4-.167-.516-.42a1.5 1.5 0 0 1-.115-.61V94.753q0-.21.094-.336c.094-.126.185-.127.366-.127h2.298q.293 0 .365.158a.7.7 0 0 1 .074.305zm3.238 5.09q0-.778-.095-1.294-.096-.514-.286-.82a1.13 1.13 0 0 0-.486-.441 1.7 1.7 0 0 0-.699-.137q-.423 0-.741.043a10 10 0 0 0-.931.189v4.879q.358.063.729.084c.371.021.47.021.667.021q.381 0 .72-.084.34-.085.594-.348t.391-.757c.138-.494.137-.774.137-1.335m8.645 1.914q0 .442.21.547.211.105.694.126.316.022.379.063c.063.041.077.119.105.273l.104 1.577q.021.296-.336.463-.379.169-.884.221c-.505.052-.603.053-.799.053q-1.368 0-2.02-.62c-.652-.62-.652-1.104-.652-2.071V94.751q0-.21.095-.336t.368-.127h2.293q.293 0 .368.148a.7.7 0 0 1 .073.314v11.17zm6.015-1.22q.02.61.188.988c.168.378.264.453.452.6q.284.221.694.295c.41.074.586.073.937.073q.483 0 1.156-.063a38 38 0 0 0 1.325-.146q.42-.042.526.01.105.053.188.453l.169.988q.063.357 0 .557t-.547.39q-.316.105-.747.2-.431.094-.883.157a14 14 0 0 1-1.757.126q-1.577 0-2.556-.441-.976-.442-1.515-1.168a4.15 4.15 0 0 1-.726-1.682 10.4 10.4 0 0 1-.188-2.009q0-.757.126-1.704c.126-.947.287-1.227.609-1.787q.484-.842 1.441-1.41t2.618-.567q1.515 0 2.44.431.925.432 1.44 1.125.515.695.705 1.547a7.8 7.8 0 0 1 .188 1.693q0 .653-.241.998-.243.348-.915.348h-5.127zm1.514-3.681q-.736 0-1.083.452t-.389 1.336h2.923q0-.759-.315-1.273-.315-.515-1.136-.515m10.054-.8.042.043q.273-.295.662-.559.39-.262.81-.482.42-.222.831-.369.41-.147.747-.21.336-.042.494.021.158.064.199.463l.253 2.062q.021.148.021.242c0 .094-.021.119-.063.168q-.063.074-.189.126c-.126.052-.203.066-.357.096a23.6 23.6 0 0 0-3.449.904v5.951a.7.7 0 0 1-.073.316q-.074.147-.366.146h-2.298q-.273 0-.366-.125a.55.55 0 0 1-.094-.338v-9.465q0-.21.094-.336c.094-.126.185-.127.366-.127h2.277q.291 0 .376.158c.085.158.084.207.084.305z"/><path d="M36.218 92.695q-.153.285-.766.284h-4.815q-.964 0-.963-.919 0-2.89.021-5.735t.021-5.735q0-1.839-.635-2.604c-.635-.765-1.103-.766-2.035-.766q-1.051 0-2.276.503-1.225.504-2.014.767v13.571q0 .349-.154.635-.153.284-.766.284h-4.771q-.569 0-.766-.241-.197-.24-.197-.678V72.36q0-.437.197-.7t.766-.263h4.771q.612.001.766.307t.154.656v1.051q.043 0 .064.022.023.022.066.021 1.446-1.094 3.371-1.772t3.502-.679q2.321 0 3.655.766 1.335.767 1.993 2.014.656 1.248.809 2.781.154 1.531.154 3.063v12.434q.004.35-.152.634m16.88-2.343q-.876.788-1.882 1.357-1.007.569-2.058.941c-1.051.372-1.387.422-2.058.525q-1.007.152-1.838.153-1.927 0-3.131-.548-1.205-.547-1.86-1.423a5 5 0 0 1-.897-2.036 11.8 11.8 0 0 1-.241-2.43q-.045-2.012.548-3.414.59-1.401 1.685-2.255 1.094-.853 2.671-1.226 1.576-.372 3.502-.372h5.035v-.7q-.001-.7-.153-1.182a1.55 1.55 0 0 0-.569-.788q-.416-.306-1.16-.46-.745-.154-1.97-.154-.483 0-1.204.045-.722.044-1.51.088c-.788.044-1.052.072-1.577.131s-1.007.103-1.444.132q-.92.087-1.204 0-.285-.089-.46-.745l-.481-2.276q-.088-.568.153-.941.24-.371 1.248-.766a13 13 0 0 1 1.729-.46 29 29 0 0 1 2.014-.328 33 33 0 0 1 2.037-.197q1.005-.066 1.751-.065 3.063 0 4.925.569 1.86.569 2.845 1.619t1.292 2.584q.307 1.531.307 3.502v6.916q0 .701.066 1.095.065.395.24.591a.96.96 0 0 0 .48.284q.307.09.832.132.57.045.744.197.176.154.176.547v2.803q0 .875-1.27 1.138-1.226.307-2.715.307-1.62-.001-2.846-.547-1.225-.547-1.663-2.299zm-.656-6.479h-3.939q-1.227 0-1.927.569-.702.57-.701 2.102 0 1.007.416 1.4c.416.393.796.395 1.555.395q1.006 0 2.343-.482 1.335-.48 2.254-1.05zm28.766 2.295q0 2.054-.81 3.428-.81 1.377-2.167 2.206c-1.357.829-1.935.953-3.086 1.201a17.3 17.3 0 0 1-3.612.37q-.787 0-1.707-.064a29 29 0 0 1-3.655-.5 13 13 0 0 1-1.511-.391q-1.095-.39-1.4-.804-.307-.411-.088-1.28l.481-2.084q.131-.612.395-.743.262-.132 1.007 0 1.531.263 3.326.416 1.796.154 2.934.153 1.662 0 2.364-.373.7-.373.7-1.251 0-.965-.524-1.295-.526-.328-1.927-.504a46 46 0 0 1-3.35-.614q-1.554-.351-2.735-1.055-1.182-.702-1.861-1.887c-.679-1.185-.678-1.829-.678-3.116q0-1.755.674-3.072a6.24 6.24 0 0 1 1.848-2.193q1.174-.878 2.807-1.318 1.631-.438 3.558-.438.744 0 1.643.066.898.067 1.816.176.92.112 1.773.287.853.177 1.554.442.876.308 1.291.64.416.33.197 1.17l-.481 2.251q-.174.614-.372.747-.197.13-.941.044-.744-.088-1.619-.197-.876-.11-1.729-.176c-.853-.066-1.103-.08-1.598-.109a22 22 0 0 0-1.27-.043q-1.664-.043-2.08.371-.416.413-.416 1.113 0 .83.77 1.069.77.241 1.956.458 1.713.219 3.252.546t2.702 1.07c1.164.742 1.398 1.157 1.868 1.987q.7 1.243.701 3.296m35.179 6.527q-.155.285-.722.284h-4.815q-.57 0-.767-.241-.197-.24-.197-.678V80.546q0-2.013-.613-2.671-.612-.656-1.838-.656-.788 0-1.927.416-1.138.415-1.97.854V92.06q0 .349-.153.635c-.153.286-.357.284-.766.284h-4.815q-.526 0-.723-.241-.197-.24-.197-.678V80.414q0-1.838-.594-2.517-.597-.68-1.786-.679-.795 0-1.918.394-1.125.395-2.05.876v13.571q0 .349-.175.635-.173.285-.782.284h-4.783q-.524 0-.719-.241-.195-.24-.194-.678V72.358q-.001-.437.194-.7c.195-.263.369-.263.719-.263h4.783q.61.001.782.307.175.306.175.656v1.007l.088.044a11.1 11.1 0 0 1 3.063-1.772 9.4 9.4 0 0 1 3.372-.635q1.969 0 3.458.722 1.488.722 2.188 2.255 1.533-1.27 3.48-2.123c1.947-.853 2.605-.854 3.918-.854q2.321 0 3.612.766 1.29.768 1.926 1.992.635 1.226.767 2.758.13 1.532.131 3.064V92.06q.003.35-.152.635" fill="#FFF"/></svg>