<svg version="1.0" xmlns="http://www.w3.org/2000/svg" width="600" height="600" viewBox="0 0 450 450"><path d="M189 .9c-2 .4-4 1-4.6 1.4-.6.3-4 1.1-7.6 1.7-14.1 2.2-44.4 12.8-54.8 19.1-.8.5-3.5 2-6 3.2-6.8 3.4-24.6 15.3-30.7 20.7-.7.5-1.5 1-1.8 1C81.6 48 48 81.6 48 83.5c0 .3-.5 1.1-1 1.8-5.4 6.1-17.3 23.9-20.7 30.7-1.2 2.5-2.7 5.2-3.2 6-6.3 10.4-16.9 40.7-19.1 54.8-.6 3.6-1.6 7.4-2.2 8.6-.7 1.2-1.4 8.5-1.6 16.8L-.2 217h107c96 0 107.2-.2 108.6-1.6s1.6-12.6 1.6-108.5V0l-12.2.1c-6.8.1-13.9.4-15.8.8m49 106.6c0 105.2 0 107.5 1.9 108.5 2.1 1.1 205.6 1.5 208.5.4 1.2-.5 1.6-2 1.6-6.3 0-7.3-1.8-22-3-24.6-.5-1.1-1.1-4-1.3-6.5-.6-5.3-5-22.7-7.1-27.3-.7-1.8-2.1-5.5-3.1-8.2-1-2.8-3-7.4-4.6-10.4s-2.9-6.2-2.9-7.1c0-1-.8-2.8-1.8-4.1s-3.6-5.5-5.6-9.4c-2.1-3.8-5.3-9.1-7.2-11.7-1.9-2.7-3.4-5.3-3.4-5.8 0-.6-.4-1-.8-1s-2.1-2-3.6-4.5c-1.6-2.5-3.3-4.5-3.7-4.5-.5 0-.9-.5-.9-1.1 0-1.4-1.8-3.4-14.5-16.7C378.1 58.4 373 54 360 43.7c-4.1-3.2-20-13.7-20.9-13.7-.5 0-1.1-.3-1.3-.8-.4-1-26.5-13.7-31.3-15.2-2.2-.7-5.3-1.8-7-2.5-5.3-2.3-12.9-4.5-24.6-7.1-6.3-1.4-13.2-2.9-15.4-3.4s-7.9-.9-12.7-1H238zM0 246.7c.1 4.9.5 10.6 1 12.8s1.8 8.3 2.9 13.5c2.5 11.2 5.6 22.2 7.7 26.7.8 1.7 1.4 3.5 1.4 4 0 1.8 6.6 17 10.7 24.6 2.4 4.4 4.3 8.4 4.3 8.9 0 .4.5.8 1 .8.6 0 1 .6 1 1.3 0 1.4 9.3 15.1 17.7 26.1 5.9 7.7 25 27.5 29.8 30.9 1.7 1.1 3.4 2.7 3.8 3.4s1.5 1.3 2.2 1.3c.8 0 1.5.4 1.5.9s1.6 1.9 3.5 3.1c2 1.2 4.1 2.7 4.8 3.4 2.4 2.3 14.8 10.6 15.9 10.6.6 0 1.9.6 2.7 1.4 2.4 2.1 17.7 9.8 24.9 12.5 3.4 1.3 6.5 2.8 6.8 3.2.3.5 1.5.9 2.8.9s3.6.7 5.3 1.5c4 2 21.6 6.6 27.3 7.2 2.5.2 5.4.8 6.5 1.3 2.6 1.2 17.3 3 24.6 3 4.3 0 5.8-.4 6.3-1.6 1.1-2.9.7-206.4-.4-208.5-1-1.9-3.3-1.9-108.5-1.9H0zm238.5-7.5c-.3.7-.4 48.3-.3 105.8l.3 104.5 8.1-.3c4.5-.1 10.4-.7 13-1.3 2.7-.6 7.2-1.4 9.9-1.9 7.6-1.3 27.8-6.9 28.9-8 .6-.6 2.2-1 3.7-1s3-.4 3.4-.9c.3-.5 2.9-1.7 5.8-2.7 5.7-1.9 23.2-10.7 25.8-13 .8-.8 2.1-1.4 2.7-1.4 1.5 0 19.8-12.8 28.7-20.1 8.2-6.6 25.5-24 31.8-31.9 6.5-8.2 18.7-25.9 18.7-27.2 0-.6.6-1.9 1.4-2.7 2.3-2.6 11.1-20.1 13-25.8 1-2.9 2.2-5.5 2.7-5.8.5-.4.9-1.9.9-3.4s.4-3.1 1-3.7c1.1-1.1 6.7-21.3 8-28.9.5-2.8 1.3-7.2 1.9-9.9.6-2.6 1.2-8.5 1.3-13l.3-8.1-105.3-.3c-83.7-.2-105.4 0-105.7 1"/></svg>