<svg id="Layer_1" data-name="Layer 1" xmlns="http://www.w3.org/2000/svg" viewBox="0 0 1000 1000"><defs><style>.cls-1{fill:#f7931e;}</style></defs><path class="cls-1" d="M915,500c0,229.19-185.8,415-415,415S85,729.19,85,500,270.81,85,500,85,915,270.81,915,500ZM669,286l6.07-29.18a10.18,10.18,0,0,0-10.22-13H645.41a16.89,16.89,0,0,0-15.72,13L623.49,286H578.1l6.2-29.18a10.18,10.18,0,0,0-10.22-13H554.63a16.89,16.89,0,0,0-15.72,13L532.71,286H279.53l-64.84,77.81h428a38.91,38.91,0,0,1,38.91,38.91v38.9a38.91,38.91,0,0,1-38.91,38.91H442.87l16.54-77.81H355.66l-75.8,356.63H383.61l42.73-201H475l-6.19,29.18a10.17,10.17,0,0,0,7,12.58,10.31,10.31,0,0,0,3.22.39h19.45a16.9,16.9,0,0,0,15.73-13l6.19-29.18h45.39l-6.19,29.18a10.17,10.17,0,0,0,7,12.58,10.31,10.31,0,0,0,3.22.39h19.45a16.9,16.9,0,0,0,15.73-13l6.19-29.18H707.5a77.81,77.81,0,0,0,77.81-77.81V363.83A77.81,77.81,0,0,0,707.5,286Z"/></svg>