<svg xmlns="http://www.w3.org/2000/svg" width="950" height="950" viewBox="0 0 950 950"><g style="display:inline"><path style="fill:#4b5887" d="M1460.666 940.82c-6.584-.261-9.357-.278-19.291-1.428-11.863-1.374-19.064-4.379-24.054-14.256-6.083-8.7-4.535-37.714-4.535-37.714l.77-30.115c.284-11.156-10.475-12.575-46.45-24.287-34.928-9.412-40.403-14.765-48.506-2.921-2.086 3.049-10.72 16.884-17.544 27.198-4.626 6.993-17.294 28.26-24.9 32.187-9.405 4.855-13.3 4.236-40.781-11.63-26.777-15.46-31.666-19.255-35.791-27.776-4.42-9.128-3.242-12.668 14.395-43.275 15.082-26.174 15.77-27.676 15.76-34.375-.018-10.336-4.305-16.508-27.102-39.023-22.926-22.643-27.22-25.389-38.409-24.56-7.034.521-9.65 1.746-34.972 16.382-29.844 17.25-31.895 17.911-41.353 13.333-8.08-3.911-11.981-8.97-26.984-34.986-15.061-26.117-16.69-30.87-13.332-38.906 3.537-8.464 9.333-13.188 32.819-26.748 34.53-19.935 40.446-28.92 33-50.115-1.426-4.061-4.776-16.053-7.445-26.648-5.383-21.375-6.68-26.56-18.005-32.298-11.33-4.67-24.629-4.062-36.82-4.062-34.005 0-36.09-1.654-42.393-8.033-6.304-6.38-7.743-8.509-7.743-42.592 0-34.084.552-37.397 7.447-44.072 6.304-5.344 8.684-6.553 42.69-6.553 14.485-1.165 23.354 1.224 36.82-4.063 11.08-6.193 12.621-10.923 18.004-32.297 2.669-10.596 6.063-22.64 7.543-26.765 5.076-14.147 2.958-24.01-7.326-34.115-2.595-2.55-13.667-9.698-24.604-15.885-21.877-12.377-28.199-17.282-32.112-24.915-5.01-9.769-4.162-12.643 12.035-40.823 14.742-25.647 18.493-30.431 27.536-35.119 8.492-4.402 12.45-3.082 42.024 14.015 39.45 22.805 39.34 22.821 72.78-10.555 20.898-20.859 24.941-26.152 26.558-34.768 1.26-6.72-.788-11.542-16.072-37.835-16.123-27.736-17.64-31.376-15.848-38.034 2.782-10.332 8.206-15.074 35.299-30.87 24.688-14.393 25.548-14.78 32.891-14.813 6.673-.03 8.255.479 13.75 4.416 5.356 3.837 8.028 7.58 19.432 27.218 7.272 12.522 15.125 24.732 17.452 27.133 16.106 14.166 23.053 10.581 39.633 5.624 9.053-2.723 21.07-5.886 26.706-7.028 11.493-2.328 23.17-8.385 27.271-14.144 3.976-5.583 4.893-15.128 4.885-29.354.533-15.54-.061-41.665 1.612-47.103 0 0 3.952-10.615 17.453-13.715s55.877-2.497 90.516 2.016c162.216 21.135 303.673 128.765 367.875 279.904 45.639 118.049 45.615 253.697.211 364.375-31.741 74.98-83.151 141.045-147.509 189.56-61.393 46.28-130.266 75.966-205.424 88.544-30.863 5.165-64.655 7.274-79.862 6.67m38.708-182.945c63.207-8.233 118.82-34.909 163.958-78.648 24.347-23.591 41.633-47.453 57.088-78.805 23.948-48.58 33.22-99.845 28.035-155-7.966-84.753-55.73-163.54-127.732-210.693-47.256-30.947-98.916-46.182-156.598-46.182-56.743 0-109.098 15.198-154.627 44.886-101.789 66.374-150.509 186.194-123.986 304.924 8.576 38.391 27.543 78.657 51.994 110.378 46.067 59.765 114.08 98.745 190.369 109.106 17.437 2.368 53.447 2.385 71.499.034m-54.31-79.33c-71.197-7.483-132.936-50.51-164.113-114.373-49.46-101.316-7.206-223.56 94.424-273.175 48.414-23.634 102.993-27.154 154.589-9.968 20.308 6.764 45.392 19.859 59.285 30.949 34.573 27.598 59.436 64.058 71.59 104.983 6.028 20.294 8.062 34.889 8.062 57.836s-2.034 37.54-8.062 57.835c-22.258 74.943-85.414 130.92-162.339 143.881-14.855 2.503-39.896 3.456-53.436 2.033m41.921-95.09c21.971-4.507 38.62-13.648 55.378-30.406 22.111-22.112 32.382-46.73 32.382-77.619 0-30.888-10.27-55.507-32.382-77.618-22.11-22.111-46.73-32.382-77.618-32.382-30.889 0-55.507 10.27-77.618 32.382s-32.382 46.73-32.382 77.618c0 30.889 10.27 55.507 32.382 77.619 16.453 16.453 33.199 25.767 54.493 30.31 11.751 2.508 33.382 2.553 45.365.095" transform="translate(-990.844 .592)"/></g><g style="display:inline"><path style="fill:#ffafff;stroke:#7c428c;stroke-width:4" d="M508.706 55.494c.275.012 14.338.925 14.338.925l23.85 15.212-7.838 12.963-16.137-9.663s-.763 33.038-3.3 76.025c-22.463-8.3-38.863-16-38.863-16l5.238-13.537s9.525 4.512 19.312 7.487c0 0 2.8-35.937 3.4-73.412zm121.6 25.95 15.2-1.3s3.2 34.762 3.688 73.812l-13.475 2.163s-19.85-9.05-44-18.388c0 0 6.312-15.987 6.312-16.012 20.063 7.65 35.225 14.325 35.225 14.325s0-26.825-2.95-54.6zm101.788 67.437c.012 0 15.337 2.613 15.35 2.613-6.75 36.612-14.213 70.45-14.213 70.45l-12.7-1.238s-18.225-14.475-37.262-27.425l9.437-11.887s15.013 9.2 28.813 20.625c0 0 6.012-25.788 10.575-53.138zm-91.563 18.975s-6.362 14.763-6.362 14.775c-26.288-11.85-51.125-21.362-51.125-21.362l5.525-15.1s25.825 9.937 51.962 21.687zm48.95 48.75c8.638-7.15 18.75 3.988 10 11.6-8.75 6.7-18.175-5-10-11.6zm143.225 32.613c5.538 6.425 9.775 14.312 9.775 14.312s-40.5 23.788-85 47.288l-6.35-12.2s3.563-22.888 3.288-44.625l13.975.25s.625 17.2-1.838 32.537c32.038-16.587 66.088-37.512 66.15-37.562zm-43.537 136.35s12.9-20.513 16.587-39.975c32.025-11.163 60.463-24.788 60.463-24.788l4.987 12.963c-25.112 11.9-53.287 21.362-53.287 21.362s-2.65 13.325-10.463 26.938l74.325-17.85 4.675 15.3-95.937 21.4zm67.887 101.8s13.825-20.275 26.325-44.338l12.788 6.988s-17.725 32.612-32.163 53.25c-31.25-3.475-62.337-6.225-62.337-6.225l.887-12.438s15.425-19.012 25.65-37.887l12.163 6.137s-5.8 12.613-20.913 31.713zm-13.525 86.737-31.05 24.925-10.562-9.312 25.812-19.813-34.087-11.137 5.262-15.8 86.638 27.275-6.1 14.437-32.963 29.2-10.112-10.45 26.475-23.412zm-45.437 78.613s-20.463 16.025-47.05 25.687l-7.963-13.237c27.275-9.95 46.813-23.513 46.813-23.513zm22.137 15.75s-22.162 16.6-47.187 26.562l-8.6-13.875c24.65-9.275 47.662-27.012 47.662-27.012zm23.375 15.075s-20.437 14.5-45.912 25.575l-8.288-12.5c25.638-11.075 45.925-26.688 45.925-26.688zM750.319 804.78l-12.188 9.85-57.85-78.837s9.525-7.3 9.538-7.3c24.5-.138 43.625-4.15 43.625-4.15l4.375 13.562s-16.713 4.225-36.088 3.9zm-115.65-14.787.025-18.463 14.375 1.563s2.962 49.212-4.688 96.25c0 0-8.125.462-15.937-.625 6.087-35.788 5.787-64.375 5.787-64.375s-19.225-4.125-34.85-11.4l.938-14.225c17.937 7.387 34.35 11.275 34.35 11.275zM507.48 901.006s-17.437-5.025-17.45-5.025c21.663-44.975 29.7-92.712 29.7-92.712l16.337 3.825-5 21.25s15.463 29.687 38.288 62.187c-7.35 3.438-15.9 6.338-15.9 6.338l-28.175-45.4s-7.65 25.625-17.8 49.537z" transform="translate(0 -1.25)"/><path style="fill:#ffafff;stroke:#7c428c;stroke-width:4" d="M784.492 249.954c8.637-7.15 18.75 3.988 10 11.6-8.75 6.7-18.175-5-10-11.6zm61.938 211.542c8.637-7.15 18.75 3.988 10 11.6-8.75 6.7-18.176-5-10-11.6zM733.582 758.5c8.638-7.15 18.75 3.988 10 11.6-8.75 6.7-18.175-5-10-11.6zm-75.905 78.479c8.637-7.15 18.75 3.987 10 11.6-8.75 6.7-18.175-5-10-11.6zm-132.88 46.315c8.637-7.15 18.75 3.987 10 11.6-8.75 6.7-18.175-5-10-11.6z" transform="translate(0 -1.25)"/></g></svg>