<svg width="216" height="91" viewBox="0 0 216 91" xmlns="http://www.w3.org/2000/svg"><g fill="none" fill-rule="evenodd"><path d="m73.95 18.657-28.637-17a10.79 10.79 0 0 0-11.05 0l-28.636 17C2.21 20.685.104 24.435.104 28.493v33.998c0 4.057 2.106 7.808 5.524 9.837l28.637 16.996a10.8 10.8 0 0 0 11.047 0l28.637-16.996c3.418-2.03 5.525-5.78 5.525-9.837V28.493c0-4.058-2.107-7.807-5.524-9.836" fill="#FEFEFE"/><path d="M35.266 87.583 6.629 70.587c-2.801-1.663-4.541-4.765-4.541-8.097V28.493c0-3.332 1.74-6.434 4.54-8.096L35.266 3.398a8.87 8.87 0 0 1 4.523-1.246c1.585 0 3.149.431 4.523 1.246l28.637 17c2.36 1.4 3.952 3.826 4.4 6.547-.95-2.027-3.092-2.578-5.588-1.12L44.669 42.559c-3.378 1.975-5.87 4.191-5.871 8.264v33.383c-.002 2.44.983 4.02 2.496 4.477a9 9 0 0 1-1.505.146 8.87 8.87 0 0 1-4.523-1.246M73.95 18.656 45.313 1.658A10.8 10.8 0 0 0 39.789.136c-1.908 0-3.816.507-5.525 1.522L5.627 18.656C2.21 20.686.104 24.436.104 28.493V62.49c0 4.057 2.106 7.808 5.524 9.837l28.637 16.998a10.8 10.8 0 0 0 5.524 1.521c1.908 0 3.814-.507 5.523-1.52l28.638-17c3.418-2.029 5.524-5.78 5.524-9.837V28.493c0-4.058-2.106-7.808-5.524-9.837" fill="#3E474A"/><path d="m66.443 65.777-7.131 4.268c-.19.11-.328.234-.33.461v1.866c0 .228.154.323.343.212l7.24-4.4c.19-.11.219-.322.22-.549v-1.646c0-.227-.153-.322-.342-.212" fill="#47B353"/><path d="M51.258 50.07c.231-.117.421.027.424.33l.024 2.466c1.033-.41 1.93-.52 2.743-.333.176.047.254.287.182.572l-.543 2.186a.94.94 0 0 1-.247.436.6.6 0 0 1-.143.106.32.32 0 0 1-.214.035c-.371-.084-1.253-.277-2.641.426-1.456.737-1.965 2.002-1.955 2.941.012 1.121.587 1.461 2.573 1.495 2.646.044 3.789 1.2 3.817 3.865.027 2.617-1.37 5.427-3.507 7.15l.047 2.441c.003.294-.188.631-.419.748l-1.446.833c-.232.117-.422-.027-.425-.32l-.025-2.403c-1.239.515-2.494.64-3.296.317-.151-.059-.216-.282-.156-.536l.524-2.208a.9.9 0 0 1 .259-.459.6.6 0 0 1 .136-.099.3.3 0 0 1 .233-.025c.864.291 1.969.155 3.032-.383 1.35-.683 2.253-2.06 2.239-3.428-.013-1.24-.685-1.757-2.319-1.769-2.08.006-4.019-.404-4.051-3.466-.026-2.52 1.285-5.144 3.36-6.803l-.026-2.465c-.003-.303.182-.636.42-.756z" fill="#FEFEFE"/><path d="M98.634 48.045h6.31a8.6 8.6 0 0 1 2.48.427c.72.24 1.352.587 1.88 1.03a4.6 4.6 0 0 1 1.21 1.579c.29.619.432 1.353.417 2.208 0 .807-.16 1.526-.474 2.138a4.7 4.7 0 0 1-1.301 1.582 6.7 6.7 0 0 1-2 1.06 8 8 0 0 1-2.426.413h-6.096zm10.84-9.298a4.5 4.5 0 0 1-1.277 1.399 6.3 6.3 0 0 1-1.912.915 8.6 8.6 0 0 1-2.27.354h-5.381v-8.9h5.22c.84.015 1.669.119 2.467.31.734.176 1.386.45 1.936.815.515.34.915.768 1.224 1.304.295.514.445 1.173.445 1.958 0 .724-.148 1.327-.451 1.845m7.036 8.064a10.5 10.5 0 0 0-2.926-2.434 10 10 0 0 0 2.078-1.836 8.8 8.8 0 0 0 1.504-2.515c.365-.931.56-1.966.58-3.086.02-1.942-.386-3.651-1.21-5.081a10.4 10.4 0 0 0-3.271-3.487c-1.32-.88-2.838-1.536-4.516-1.954a21.8 21.8 0 0 0-5.025-.636H92.26c-.8 0-1.45.617-1.45 1.378v36.65c0 .762.65 1.379 1.45 1.379h12.352a18.5 18.5 0 0 0 5.204-.795c1.7-.518 3.229-1.276 4.542-2.255a11.3 11.3 0 0 0 3.228-3.741c.81-1.502 1.212-3.243 1.192-5.16 0-1.24-.201-2.417-.596-3.498a9.9 9.9 0 0 0-1.673-2.93m23.487 2.081h-6.328l3.189-9.827zm.317-22.149c-.191-.572-.75-.96-1.381-.96h-4.103c-.63 0-1.185.385-1.378.954l-12.443 36.652c-.142.42-.065.877.208 1.234.273.356.708.566 1.17.566h4.899c.634 0 1.195-.393 1.383-.969l2.78-8.522h10.726l2.732 8.516c.186.58.749.975 1.386.975h4.87c.463 0 .897-.209 1.17-.564a1.32 1.32 0 0 0 .21-1.23zm41.663 21.485a12.4 12.4 0 0 0-2.302-2.26 19.3 19.3 0 0 0-2.719-1.715 27 27 0 0 0-2.976-1.322 50 50 0 0 0-2.989-1.002 60 60 0 0 1-2.698-.861 12.8 12.8 0 0 1-2.445-1.127 5.8 5.8 0 0 1-1.672-1.484c-.376-.502-.566-1.125-.578-1.882 0-.751.147-1.378.451-1.92a4.3 4.3 0 0 1 1.267-1.413 6.1 6.1 0 0 1 1.918-.91c1.684-.476 3.573-.405 4.939.102a5.7 5.7 0 0 1 1.91 1.15 5.8 5.8 0 0 1 1.304 1.803c.346.737.584 1.577.707 2.495.09.687.707 1.203 1.437 1.203h5.029c.39 0 .762-.148 1.035-.413a1.34 1.34 0 0 0 .413-.992c-.04-1.878-.475-3.612-1.293-5.152a12.5 12.5 0 0 0-3.248-3.906c-1.326-1.057-2.865-1.887-4.573-2.47-3.244-1.103-6.847-1.162-10.29-.143a14.7 14.7 0 0 0-4.47 2.17 11.75 11.75 0 0 0-3.258 3.569c-.852 1.444-1.285 3.093-1.285 4.903 0 1.822.44 3.444 1.304 4.822a12.6 12.6 0 0 0 3.186 3.413c1.245.923 2.64 1.71 4.145 2.34a47 47 0 0 0 4.284 1.56q1.377.42 2.87.939c.906.315 1.746.712 2.496 1.18a5.6 5.6 0 0 1 1.666 1.56c.38.548.566 1.229.566 2.084 0 .76-.159 1.38-.483 1.898a4.5 4.5 0 0 1-1.356 1.388 6.4 6.4 0 0 1-2.012.854c-1.811.444-3.782.374-5.337-.103a6.7 6.7 0 0 1-2.205-1.133 6.1 6.1 0 0 1-1.553-1.83c-.41-.73-.685-1.593-.82-2.564-.096-.685-.71-1.197-1.436-1.197H155.9c-.392 0-.767.15-1.038.417a1.34 1.34 0 0 0-.41 1c.06 1.963.559 3.749 1.483 5.308a13 13 0 0 0 3.542 3.887c1.421 1.04 3.052 1.847 4.846 2.398 1.777.545 3.62.82 5.475.82 1.66 0 3.343-.224 4.999-.667 1.685-.451 3.224-1.137 4.57-2.037a11.5 11.5 0 0 0 3.39-3.48c.9-1.435 1.355-3.122 1.355-5.01 0-1.237-.191-2.393-.57-3.434a10.4 10.4 0 0 0-1.567-2.836m32.112-22.445h-4.633c-.8 0-1.449.616-1.449 1.377V41.54H195.1V27.159c0-.761-.648-1.377-1.448-1.377h-4.607c-.8 0-1.449.616-1.449 1.377v36.652c0 .761.65 1.377 1.45 1.377h4.606c.8 0 1.448-.616 1.448-1.377V48.247h12.906v15.564c0 .761.65 1.377 1.45 1.377h4.632c.8 0 1.45-.616 1.45-1.377V27.159c0-.761-.65-1.377-1.45-1.377M95.243 71.541H93.49v4.69h-.937v-4.69h-1.741v-.739h4.43zm5.397 4.69h-.917v-2.423h-1.941v2.423h-.914v-5.429h.914v2.271h1.94v-2.27h.918zm5.39-2.434h-2.35v1.704h2.75v.73h-3.695v-5.428h3.666v.738h-2.72v1.532h2.348zm9.08-.026v1.73h1.027q.224-.003.408-.065t.318-.17a.78.78 0 0 0 .286-.615 1 1 0 0 0-.067-.367.75.75 0 0 0-.192-.275.9.9 0 0 0-.306-.173 1.3 1.3 0 0 0-.404-.065zm0-.683h.902q.21-.003.394-.054a.9.9 0 0 0 .315-.15.68.68 0 0 0 .29-.571.8.8 0 0 0-.074-.351.65.65 0 0 0-.21-.238 1 1 0 0 0-.32-.136 2 2 0 0 0-.403-.047h-.894zm-.945 3.144v-5.43h1.823q.411.006.77.09.36.087.628.266.269.178.42.456.154.278.15.659a1.07 1.07 0 0 1-.235.687 1.5 1.5 0 0 1-.623.442q.238.064.425.18a1.2 1.2 0 0 1 .504.645q.066.2.067.424 0 .388-.15.682t-.413.492a1.9 1.9 0 0 1-.627.3 3 3 0 0 1-.783.107zm8.671-3.065a3.6 3.6 0 0 0-.06-.608 1.8 1.8 0 0 0-.183-.538 1.1 1.1 0 0 0-.344-.385.9.9 0 0 0-.534-.147.9.9 0 0 0-.529.147 1.1 1.1 0 0 0-.333.386q-.124.238-.172.54-.048.3-.053.605v.7q.004.306.055.607.05.3.174.54t.334.39.528.15q.32 0 .535-.15.211-.15.343-.388a1.8 1.8 0 0 0 .181-.54q.053-.303.057-.609zm.945.7q0 .482-.13.923a2.4 2.4 0 0 1-.386.78 1.9 1.9 0 0 1-.644.536 1.94 1.94 0 0 1-.902.2q-.514 0-.894-.202a1.9 1.9 0 0 1-.635-.538 2.4 2.4 0 0 1-.38-.778 3.3 3.3 0 0 1-.127-.92v-.694q0-.32.057-.626t.169-.577.277-.499a1.76 1.76 0 0 1 .902-.65q.285-.094.627-.094.516 0 .903.202.387.201.645.538.258.339.387.782.13.442.13.924zm5.585-3.064.008 3.635q-.005.419-.141.763-.138.345-.385.59a1.7 1.7 0 0 1-.598.38 2.2 2.2 0 0 1-.785.135q-.425 0-.77-.135a1.7 1.7 0 0 1-.591-.377 1.7 1.7 0 0 1-.384-.59 2.1 2.1 0 0 1-.141-.766l.008-3.635h.925l.007 3.635q.004.25.067.459t.18.359a.8.8 0 0 0 .293.235.9.9 0 0 0 .406.084 1 1 0 0 0 .415-.084.8.8 0 0 0 .302-.236q.12-.15.185-.359.06-.208.066-.457l.008-3.636zm2.986 2.588h.866q.235 0 .432-.063.195-.064.339-.181a.8.8 0 0 0 .22-.288.9.9 0 0 0 .08-.39q0-.227-.075-.401a.8.8 0 0 0-.214-.296.9.9 0 0 0-.34-.18 1.6 1.6 0 0 0-.446-.065h-.862zm.956.723h-.956v2.117h-.941v-5.428h1.803q.44.004.81.107.37.102.64.305.271.203.42.509.15.305.149.716 0 .275-.076.5a1.44 1.44 0 0 1-.543.73 2 2 0 0 1-.423.235l1.207 2.282v.044h-1.003zm7.522 2.117h-.949l-1.858-3.735-.004 3.735h-.953v-5.429h.953l1.851 3.726.008-3.726h.952zm5.394-2.434h-2.35v1.704h2.75v.73h-3.694v-5.428h3.666v.738h-2.721v1.532h2.349zm2.79.413h3.14v-.719h-3.14zm6.572-.003h1.31l-.647-2.129zm1.545.764h-1.784l-.392 1.26h-.973l1.855-5.428h.827l1.82 5.429h-.969zm6.805.582a2 2 0 0 1-.341.302 2.3 2.3 0 0 1-.44.238 3 3 0 0 1-.526.157q-.285.055-.606.055-.514 0-.91-.19a1.9 1.9 0 0 1-.668-.519 2.3 2.3 0 0 1-.416-.778 3.3 3.3 0 0 1-.147-.962v-.67q0-.516.14-.962a2.4 2.4 0 0 1 .407-.78q.265-.333.649-.523.384-.193.878-.193.442.001.792.115.35.117.6.335t.398.531q.147.312.186.701h-.925a1.6 1.6 0 0 0-.11-.395.85.85 0 0 0-.504-.487 1.2 1.2 0 0 0-.421-.065.9.9 0 0 0-.512.14q-.213.14-.354.376a1.8 1.8 0 0 0-.21.548 3.3 3.3 0 0 0-.07.651v.678q.005.34.073.65.069.309.216.545t.378.38q.232.14.557.144.133 0 .275-.016.142-.018.268-.054a1.3 1.3 0 0 0 .234-.095.6.6 0 0 0 .172-.145l.008-1.085h-1.031v-.696h1.952zm3.134-1.346h1.31l-.646-2.129zm1.546.764h-1.784l-.392 1.26h-.973l1.855-5.428h.827l1.82 5.429h-.97zm3.099-4.168h3.396v.742h-1.235v3.949h1.235v.737h-3.396v-.737h1.208v-3.95h-1.208zm9.31 5.428h-.949l-1.858-3.735-.004 3.735h-.953v-5.429h.953l1.851 3.726.008-3.726h.952zm10.755-1.398a.7.7 0 0 0-.084-.34.8.8 0 0 0-.24-.26 1.7 1.7 0 0 0-.368-.196 5 5 0 0 0-.465-.155 5 5 0 0 1-.664-.23 2.6 2.6 0 0 1-.584-.338 1.7 1.7 0 0 1-.416-.467 1.2 1.2 0 0 1-.16-.616q0-.35.16-.629.16-.276.425-.47a2 2 0 0 1 .62-.3 2.6 2.6 0 0 1 1.508.017q.358.122.627.34.268.218.425.521.157.305.16.674h-.94a1.3 1.3 0 0 0-.092-.375.9.9 0 0 0-.204-.293.9.9 0 0 0-.32-.19 1.3 1.3 0 0 0-.435-.067q-.212 0-.392.052a.9.9 0 0 0-.312.153.68.68 0 0 0-.28.563q0 .19.102.33a1 1 0 0 0 .266.244q.165.105.379.181t.445.14q.357.1.682.248.326.147.573.354t.392.48q.144.27.145.622 0 .361-.161.637a1.4 1.4 0 0 1-.431.462 2 2 0 0 1-.627.282 2.9 2.9 0 0 1-1.267.046 2.4 2.4 0 0 1-.937-.385 1.8 1.8 0 0 1-.355-.332 1.5 1.5 0 0 1-.327-.934h.944q.02.245.114.428a.9.9 0 0 0 .25.304q.159.122.368.184.21.06.464.061.213 0 .396-.048.184-.049.322-.144a.7.7 0 0 0 .216-.236.64.64 0 0 0 .078-.318m6.475 1.398h-.917v-2.423h-1.941v2.423h-.914v-5.429h.914v2.271h1.941v-2.27h.917zm5.39-2.434h-2.35v1.704h2.75v.73h-3.694v-5.428h3.666v.738h-2.721v1.532h2.349zm3.428 1.704h2.721v.73h-3.662v-5.428h.941zm5.743 0h2.72v.73h-3.661v-5.428h.94z" fill="#3E474A"/></g></svg>