<svg viewBox="0 0 79.387 91" xmlns="http://www.w3.org/2000/svg"><g fill="none" fill-rule="evenodd"><path d="m73.95 18.657-28.637-17a10.79 10.79 0 0 0-11.05 0l-28.636 17C2.21 20.685.104 24.435.104 28.493v33.998c0 4.057 2.106 7.808 5.524 9.837l28.637 16.996a10.8 10.8 0 0 0 11.047 0l28.637-16.996c3.418-2.03 5.525-5.78 5.525-9.837V28.493c0-4.058-2.107-7.807-5.524-9.836" fill="#FEFEFE"/><path d="M35.266 87.583 6.629 70.587c-2.801-1.663-4.541-4.765-4.541-8.097V28.493c0-3.332 1.74-6.434 4.54-8.096L35.266 3.398a8.87 8.87 0 0 1 4.523-1.246c1.585 0 3.149.431 4.523 1.246l28.637 17c2.36 1.4 3.952 3.826 4.4 6.547-.95-2.027-3.092-2.578-5.588-1.12L44.669 42.559c-3.378 1.975-5.87 4.191-5.871 8.264v33.383c-.002 2.44.983 4.02 2.496 4.477a9 9 0 0 1-1.505.146 8.87 8.87 0 0 1-4.523-1.246M73.95 18.656 45.313 1.658A10.8 10.8 0 0 0 39.789.136c-1.908 0-3.816.507-5.525 1.522L5.627 18.656C2.21 20.686.104 24.436.104 28.493V62.49c0 4.057 2.106 7.808 5.524 9.837l28.637 16.998a10.8 10.8 0 0 0 5.524 1.521c1.908 0 3.814-.507 5.523-1.52l28.638-17c3.418-2.029 5.524-5.78 5.524-9.837V28.493c0-4.058-2.106-7.808-5.524-9.837" fill="#3E474A"/><path d="m66.443 65.777-7.131 4.268c-.19.11-.328.234-.33.461v1.866c0 .228.154.323.343.212l7.24-4.4c.19-.11.219-.322.22-.549v-1.646c0-.227-.153-.322-.342-.212" fill="#47B353"/><path d="M51.258 50.07c.231-.117.421.027.424.33l.024 2.466c1.033-.41 1.93-.52 2.743-.333.176.047.254.287.182.572l-.543 2.186a.94.94 0 0 1-.247.436.6.6 0 0 1-.143.106.32.32 0 0 1-.214.035c-.371-.084-1.253-.277-2.641.426-1.456.737-1.965 2.002-1.955 2.941.012 1.121.587 1.461 2.573 1.495 2.646.044 3.789 1.2 3.817 3.865.027 2.617-1.37 5.427-3.507 7.15l.047 2.441c.003.294-.188.631-.419.748l-1.446.833c-.232.117-.422-.027-.425-.32l-.025-2.403c-1.239.515-2.494.64-3.296.317-.151-.059-.216-.282-.156-.536l.524-2.208a.9.9 0 0 1 .259-.459.6.6 0 0 1 .136-.099.3.3 0 0 1 .233-.025c.864.291 1.969.155 3.032-.383 1.35-.683 2.253-2.06 2.239-3.428-.013-1.24-.685-1.757-2.319-1.769-2.08.006-4.019-.404-4.051-3.466-.026-2.52 1.285-5.144 3.36-6.803l-.026-2.465c-.003-.303.182-.636.42-.756z" fill="#FEFEFE"/></g></svg>