<svg xmlns="http://www.w3.org/2000/svg" viewBox="0 0 83.541 85.671"><path d="M189.151 271.01c-16.364 25.824-6.131 67.6 24.749 77.074" style="fill:none;stroke:var(--color-fg);stroke-width:4;stroke-linecap:butt;stroke-linejoin:miter;stroke-miterlimit:4;stroke-dasharray:none;stroke-opacity:1" transform="translate(-163.825 -265.474)"/><path d="M189.151 271.51c32.096 2.852 48.397 40.475 41.012 68.796m-41.365-69.296 33.94 74.245" style="fill:none;stroke:var(--color-fg);stroke-width:4;stroke-linecap:butt;stroke-linejoin:miter;stroke-miterlimit:4;stroke-dasharray:none;stroke-opacity:1" transform="translate(-163.825 -265.474)"/><path d="M171.12 287.98c16.747 8.853 37.735-2.825 44.548-19.092m-49.144 37.123c24.602 7.892 54.449-4.408 65.053-28.284m-61.871 48.083c27.657 6.83 61.507-5.537 72.478-33.234" style="fill:none;stroke:var(--color-fg);stroke-width:4;stroke-linecap:butt;stroke-linejoin:miter;stroke-miterlimit:4;stroke-dasharray:none;stroke-opacity:1" transform="translate(-163.825 -265.474)"/><path transform="rotate(-.708 -21565.452 13124.836)" d="M241.534 310.825a39.766 40.836 0 0 1-39.654 40.835 39.766 40.836 0 0 1-39.878-40.604 39.766 40.836 0 0 1 39.429-41.065 39.766 40.836 0 0 1 40.1 40.372" style="fill:none;stroke:var(--color-fg);stroke-width:4;stroke-miterlimit:4;stroke-dasharray:none;stroke-opacity:1"/><path d="M180.666 340.306c24.578 8.652 55.439-4.151 64.7-28.992" style="fill:none;stroke:var(--color-fg);stroke-width:4;stroke-linecap:butt;stroke-linejoin:miter;stroke-miterlimit:4;stroke-dasharray:none;stroke-opacity:1" transform="translate(-163.825 -265.474)"/><path style="fill:none;stroke:var(--color-fg);stroke-width:4;stroke-miterlimit:4;stroke-dasharray:none;stroke-opacity:1" d="M-248.782 311.287a39.766 40.836 0 0 1-.312-7.699" transform="scale(-1 1)rotate(-.708 -21401.627 -13390.31)"/></svg>