<svg data-name="Layer 1" xmlns="http://www.w3.org/2000/svg" viewBox="0 0 1000 1000"><path d="M915 500c0 229.19-185.8 415-415 415S85 729.19 85 500 270.81 85 500 85s415 185.81 415 415M669 286l6.07-29.18a10.18 10.18 0 0 0-10.22-13h-19.44a16.89 16.89 0 0 0-15.72 13l-6.2 29.18H578.1l6.2-29.18a10.18 10.18 0 0 0-10.22-13h-19.45a16.89 16.89 0 0 0-15.72 13l-6.2 29.18H279.53l-64.84 77.81h428a38.91 38.91 0 0 1 38.91 38.91v38.9a38.91 38.91 0 0 1-38.91 38.91H442.87l16.54-77.81H355.66l-75.8 356.63h103.75l42.73-201H475l-6.19 29.18a10.17 10.17 0 0 0 7 12.58 10.3 10.3 0 0 0 3.22.39h19.45a16.9 16.9 0 0 0 15.73-13l6.19-29.18h45.39l-6.19 29.18a10.17 10.17 0 0 0 7 12.58 10.3 10.3 0 0 0 3.22.39h19.45a16.9 16.9 0 0 0 15.73-13l6.19-29.18h96.31a77.81 77.81 0 0 0 77.81-77.81V363.83A77.81 77.81 0 0 0 707.5 286Z" style="fill:#f7931e"/></svg>