<svg xmlns="http://www.w3.org/2000/svg" viewBox="0 0 1639.373 280.629"><path d="m1607.741 101.632 29.553-49.007L1620.9 0H494.142l-5.274 38.4L478.426 0H215.833l-9.044 36.157h-21.83l-5.177 20L150.794 0H65.22L0 209.344l51.97 71.284h85.465l10.456-39.55h34.518l23.147 39.55h263.806l6.283-45.87 14.6 45.87h881.366l35.68-73.944h32.267l29.97-58.654 32 132.6h88.725l49.119-71.4Zm-761.533 49.663.109-24.988h75.807l.768 24.988Z"/><path d="m59.37 266.076-43.299-59.39H85.96l39.637 59.391zm282.837-59.39h-69.886l29.883 59.391h66.227zm23.296 0 25.004 59.391h66.228l-21.346-59.391zm209.659 0 14.027 59.391H743.72l-5.49-59.391zm349.433 0-4.268 59.391H765.796l-4.271-59.391zm23.295 0h69.884l-9.144 59.391h-66.227zm93.181 0-10.365 59.391h66.227l14.024-59.391zm93.181 0-15.243 59.39 66.228.001 18.902-59.391zm93.182 0-20.122 59.391h66.228l23.78-59.391zm93.181 0-24.999 59.391h66.227l28.66-59.391zm232.955 0-37.196 59.391h66.227l40.856-59.391zm-1071.59 0 18.906 59.391h66.228l-15.248-59.391zm-302.839 0h69.888l31.099 59.391H213.9z" style="fill:#3d3938"/><path d="M199.243 126.307h-22.59l-10.237 39.54h-45.874l10.93-39.54h-22.59l-22.925 80.378H16.071L75.928 14.553h64.828L130.444 50.71h21.926l-10.293 37.235h44.507l9.64-37.235h21.926l9.044-36.157h64.831l-43 192.132h-69.884ZM313.631 14.553h64.828l-36.252 192.132h-69.886Zm280.921 0h151.266L744.39 50.71h-87.707l-2.777 37.235h89.013l-1.519 38.362h-90.36l-2.95 39.54h91.749l-1.613 40.838H575.161Zm172.875 0h151.265L919.8 50.71h-87.7l-.5 115.137h91.747l1.254 40.838H761.525Zm267.648 111.754h-22.591l5.29 80.378H947.89L940.3 14.552h151.265l7.407 73.392h-22.252l1.755 19.037h22.42l10.062 99.7h-69.886Zm-27.566-75.6 2.45 37.235h22.255l-2.778-37.235Zm278.542-36.154h151.265l8.726 36.157h-87.707l7.679 37.235h89.014l9.258 38.362h-90.36l16.577 80.378h-69.888Zm225.771 36.157h-43.853l-9.044-36.157h151.265l11.265 36.157H1577.6l45.856 155.975h-69.887ZM490.245 145.926h-22.763l5.64-38.944H450.7l-15.312 99.7H365.5l34.568-192.129H464.9l-5.557 36.157h21.927l-5.392 37.235h22.254l9.983-73.392h64.828l-21.077 192.132H481.98Zm774.196-131.373h-151.265l21.077 192.132h69.886l-8.265-60.759h22.763l8.8 60.759h69.886ZM1213.49 84.8h11.11l5.278 35.033h-15.022L1213 106.982h-22.42l1.747 12.851H1177.3l-4.56-35.033h11.113l-1.263-9.389h-25.834l-3.072-24.7h29.236l2.937 21.587h22.116l-3.126-21.587h29.235l3.866 24.7h-25.834Z" style="fill:#d0c5c0"/></svg>